<?xml version="1.0" encoding="utf-8"?>
<!-- Generated by Mocodo 4.3.2 -->
<svg width="767" height="315" viewBox="0 0 767 315" xmlns="http://www.w3.org/2000/svg">
<rect x="0" y="0" width="767" height="315" fill="#f7f7f7" stroke="none" stroke-width="0"/>

<!-- Association CONTIENT -->
<g>
	<line x1="68" y1="221" x2="68" y2="77" stroke="#de77ae" stroke-width="2"/>
	<line x1="211" y1="77" x2="68" y2="77" stroke="#de77ae" stroke-width="2"/>
	<g>
		<path d="M98 43 a14 14 90 0 1 14 14 V68 h-88 V57 a14 14 90 0 1 14 -14" fill="#f1b6da" stroke="#f1b6da" stroke-width="0"/>
		<path d="M112 68 v29 a14 14 90 0 1 -14 14 H38 a14 14 90 0 1 -14 -14 V68 H88" fill="#fde0ef" stroke="#fde0ef" stroke-width="0"/>
		<rect x="24" y="43" width="88" height="68" fill="none" rx="14" stroke="#de77ae" stroke-width="2"/>
		<line x1="24" y1="68" x2="112" y2="68" stroke="#de77ae" stroke-width="1"/>
		<text x="36" y="60.75" fill="#000000" font-family="Verdana" font-size="12">CONTIENT</text>
		<text x="31" y="85.8" fill="#000000" font-family="Verdana" font-size="12">quantité</text>
		<text x="31" y="102.8" fill="#000000" font-family="Verdana" font-size="12">prix unitaire</text>
	</g>
	<text x="73" y="128" fill="#4d9221" font-family="Verdana" font-size="12">0,N</text>
	<text x="135" y="94" fill="#4d9221" font-family="Verdana" font-size="12">1,N</text>
</g>

<!-- Association POSSEDE -->
<g>
	<line x1="211" y1="77" x2="352" y2="77" stroke="#de77ae" stroke-width="2"/>
	<line x1="488" y1="77" x2="352" y2="77" stroke="#de77ae" stroke-width="2"/>
	<g>
		<path d="M375 52 a14 14 90 0 1 14 14 V77 h-74 V66 a14 14 90 0 1 14 -14" fill="#f1b6da" stroke="#f1b6da" stroke-width="0"/>
		<path d="M389 77 v11 a14 14 90 0 1 -14 14 H329 a14 14 90 0 1 -14 -14 V77 H74" fill="#fde0ef" stroke="#fde0ef" stroke-width="0"/>
		<rect x="315" y="52" width="74" height="50" fill="none" rx="14" stroke="#de77ae" stroke-width="2"/>
		<line x1="315" y1="77" x2="389" y2="77" stroke="#de77ae" stroke-width="1"/>
		<text x="323" y="69.75" fill="#000000" font-family="Verdana" font-size="12">POSSÈDE</text>
	</g>
	<text x="265" y="94" fill="#4d9221" font-family="Verdana" font-size="12">1,1</text>
	<text x="414" y="94" fill="#4d9221" font-family="Verdana" font-size="12">0,N</text>
</g>

<!-- Association GENERE -->
<g>
	<line x1="488" y1="77" x2="630" y2="77" stroke="#de77ae" stroke-width="2"/>
	<line x1="726" y1="77" x2="630" y2="77" stroke="#de77ae" stroke-width="2"/>
	<g>
		<path d="M648 52 a14 14 90 0 1 14 14 V77 h-64 V66 a14 14 90 0 1 14 -14" fill="#f1b6da" stroke="#f1b6da" stroke-width="0"/>
		<path d="M662 77 v11 a14 14 90 0 1 -14 14 H612 a14 14 90 0 1 -14 -14 V77 H64" fill="#fde0ef" stroke="#fde0ef" stroke-width="0"/>
		<rect x="598" y="52" width="64" height="50" fill="none" rx="14" stroke="#de77ae" stroke-width="2"/>
		<line x1="598" y1="77" x2="662" y2="77" stroke="#de77ae" stroke-width="1"/>
		<text x="605" y="69.75" fill="#000000" font-family="Verdana" font-size="12">GÉNÈRE</text>
	</g>
	<text x="540" y="94" fill="#4d9221" font-family="Verdana" font-size="12">0,N</text>
	<text x="668" y="94" fill="#4d9221" font-family="Verdana" font-size="12">0,1</text>
</g>

<!-- Association EST_LOCALISE -->
<g>
	<line x1="352" y1="221" x2="211" y2="221" stroke="#de77ae" stroke-width="2"/>
	<line x1="68" y1="221" x2="211" y2="221" stroke="#de77ae" stroke-width="2"/>
	<g>
		<path d="M249 196 a14 14 90 0 1 14 14 V221 h-104 V210 a14 14 90 0 1 14 -14" fill="#f1b6da" stroke="#f1b6da" stroke-width="0"/>
		<path d="M263 221 v11 a14 14 90 0 1 -14 14 H173 a14 14 90 0 1 -14 -14 V221 H104" fill="#fde0ef" stroke="#fde0ef" stroke-width="0"/>
		<rect x="159" y="196" width="104" height="50" fill="none" rx="14" stroke="#de77ae" stroke-width="2"/>
		<line x1="159" y1="221" x2="263" y2="221" stroke="#de77ae" stroke-width="1"/>
		<text x="167" y="213.75" fill="#000000" font-family="Verdana" font-size="12">EST LOCALISÉ</text>
	</g>
	<text x="268" y="238" fill="#4d9221" font-family="Verdana" font-size="12">0,N</text>
	<text x="132" y="238" fill="#4d9221" font-family="Verdana" font-size="12">0,N</text>
</g>

<!-- Association EST_DE_TYPE -->
<g>
	<line x1="488" y1="77" x2="488" y2="221" stroke="#de77ae" stroke-width="2"/>
	<line x1="630" y1="221" x2="488" y2="221" stroke="#de77ae" stroke-width="2"/>
	<g>
		<path d="M521 196 a14 14 90 0 1 14 14 V221 h-94 V210 a14 14 90 0 1 14 -14" fill="#f1b6da" stroke="#f1b6da" stroke-width="0"/>
		<path d="M535 221 v11 a14 14 90 0 1 -14 14 H455 a14 14 90 0 1 -14 -14 V221 H94" fill="#fde0ef" stroke="#fde0ef" stroke-width="0"/>
		<rect x="441" y="196" width="94" height="50" fill="none" rx="14" stroke="#de77ae" stroke-width="2"/>
		<line x1="441" y1="221" x2="535" y2="221" stroke="#de77ae" stroke-width="1"/>
		<text x="449" y="213.75" fill="#000000" font-family="Verdana" font-size="12">EST DE TYPE</text>
	</g>
	<text x="493" y="162" fill="#4d9221" font-family="Verdana" font-size="12">1,1</text>
	<text x="540" y="238" fill="#4d9221" font-family="Verdana" font-size="12">0,N</text>
</g>

<!-- Entity COMMANDE -->
<g>
	<g>
		<rect x="162" y="26" width="98" height="25" fill="#b8e186" stroke="none" stroke-width="0" opacity="1"/>
		<rect x="162" y="51" width="98" height="77" fill="#e6f5d0" stroke="none" stroke-width="0" opacity="1"/>
		<rect x="162" y="26" width="98" height="102" fill="none" stroke="#7fbc41" stroke-width="2" opacity="1"/>
		<line x1="162" y1="51" x2="260" y2="51" stroke="#7fbc41" stroke-width="1"/>
	</g>
	<text x="175" y="43.75" fill="#000000" font-family="Verdana" font-size="12">COMMANDE</text>
	<text x="167" y="68.8" fill="#000000" font-family="Verdana" font-size="12">commande ref</text>
	<line x1="167" y1="71" x2="255" y2="71" stroke="#000000" stroke-width="1"/>
	<text x="167" y="85.8" fill="#000000" font-family="Verdana" font-size="12">date</text>
	<text x="167" y="102.8" fill="#000000" font-family="Verdana" font-size="12">statut</text>
	<text x="167" y="119.8" fill="#000000" font-family="Verdana" font-size="12">total</text>
</g>

<!-- Entity UTILISATEUR -->
<g>
	<g>
		<rect x="441" y="9" width="94" height="25" fill="#b8e186" stroke="none" stroke-width="0" opacity="1"/>
		<rect x="441" y="34" width="94" height="111" fill="#e6f5d0" stroke="none" stroke-width="0" opacity="1"/>
		<rect x="441" y="9" width="94" height="136" fill="none" stroke="#7fbc41" stroke-width="2" opacity="1"/>
		<line x1="441" y1="34" x2="535" y2="34" stroke="#7fbc41" stroke-width="1"/>
	</g>
	<text x="447" y="26.75" fill="#000000" font-family="Verdana" font-size="12">UTILISATEUR</text>
	<text x="446" y="51.8" fill="#000000" font-family="Verdana" font-size="12">email</text>
	<line x1="446" y1="54" x2="480" y2="54" stroke="#000000" stroke-width="1"/>
	<text x="446" y="68.8" fill="#000000" font-family="Verdana" font-size="12">prénom</text>
	<text x="446" y="85.8" fill="#000000" font-family="Verdana" font-size="12">nom</text>
	<text x="446" y="102.8" fill="#000000" font-family="Verdana" font-size="12">mot de passe</text>
	<text x="446" y="119.8" fill="#000000" font-family="Verdana" font-size="12">statut</text>
	<text x="446" y="136.8" fill="#000000" font-family="Verdana" font-size="12">rôle</text>
</g>

<!-- Entity LOG -->
<g>
	<g>
		<rect x="694" y="18" width="64" height="25" fill="#b8e186" stroke="none" stroke-width="0" opacity="1"/>
		<rect x="694" y="43" width="64" height="93" fill="#e6f5d0" stroke="none" stroke-width="0" opacity="1"/>
		<rect x="694" y="18" width="64" height="118" fill="none" stroke="#7fbc41" stroke-width="2" opacity="1"/>
		<line x1="694" y1="43" x2="758" y2="43" stroke="#7fbc41" stroke-width="1"/>
	</g>
	<text x="713" y="35.75" fill="#000000" font-family="Verdana" font-size="12">LOG</text>
	<text x="699" y="60.8" fill="#000000" font-family="Verdana" font-size="12">log ref</text>
	<line x1="699" y1="63" x2="739" y2="63" stroke="#000000" stroke-width="1"/>
	<text x="699" y="77.8" fill="#000000" font-family="Verdana" font-size="12">date</text>
	<text x="699" y="94.8" fill="#000000" font-family="Verdana" font-size="12">niveau</text>
	<text x="699" y="111.8" fill="#000000" font-family="Verdana" font-size="12">message</text>
	<text x="699" y="128.8" fill="#000000" font-family="Verdana" font-size="12">context</text>
</g>

<!-- Entity PRODUIT -->
<g>
	<g>
		<rect x="9" y="136" width="118" height="25" fill="#b8e186" stroke="none" stroke-width="0" opacity="1"/>
		<rect x="9" y="161" width="118" height="145" fill="#e6f5d0" stroke="none" stroke-width="0" opacity="1"/>
		<rect x="9" y="136" width="118" height="170" fill="none" stroke="#7fbc41" stroke-width="2" opacity="1"/>
		<line x1="9" y1="161" x2="127" y2="161" stroke="#7fbc41" stroke-width="1"/>
	</g>
	<text x="40" y="153.75" fill="#000000" font-family="Verdana" font-size="12">PRODUIT</text>
	<text x="14" y="178.8" fill="#000000" font-family="Verdana" font-size="12">nom scientifique</text>
	<line x1="14" y1="181" x2="114" y2="181" stroke="#000000" stroke-width="1"/>
	<text x="14" y="195.8" fill="#000000" font-family="Verdana" font-size="12">nom</text>
	<text x="14" y="212.8" fill="#000000" font-family="Verdana" font-size="12">prix</text>
	<text x="14" y="229.8" fill="#000000" font-family="Verdana" font-size="12">description</text>
	<text x="14" y="246.8" fill="#000000" font-family="Verdana" font-size="12">image url</text>
	<text x="14" y="263.8" fill="#000000" font-family="Verdana" font-size="12">empreinte carbon</text>
	<text x="14" y="280.8" fill="#000000" font-family="Verdana" font-size="12">disponibilité</text>
	<text x="14" y="297.8" fill="#000000" font-family="Verdana" font-size="12">stock</text>
</g>

<!-- Entity LOCALISATION -->
<g>
	<g>
		<rect x="295" y="179" width="114" height="25" fill="#b8e186" stroke="none" stroke-width="0" opacity="1"/>
		<rect x="295" y="204" width="114" height="59" fill="#e6f5d0" stroke="none" stroke-width="0" opacity="1"/>
		<rect x="295" y="179" width="114" height="84" fill="none" stroke="#7fbc41" stroke-width="2" opacity="1"/>
		<line x1="295" y1="204" x2="409" y2="204" stroke="#7fbc41" stroke-width="1"/>
	</g>
	<text x="306" y="196.75" fill="#000000" font-family="Verdana" font-size="12">LOCALISATION</text>
	<text x="300" y="221.8" fill="#000000" font-family="Verdana" font-size="12">localisation ref</text>
	<line x1="300" y1="224" x2="389" y2="224" stroke="#000000" stroke-width="1"/>
	<text x="300" y="238.8" fill="#000000" font-family="Verdana" font-size="12">nom</text>
	<text x="300" y="255.8" fill="#000000" font-family="Verdana" font-size="12">coordonnées gps</text>
</g>

<!-- Entity TYPE_UTILISATEUR -->
<g>
	<g>
		<rect x="567" y="170" width="126" height="25" fill="#b8e186" stroke="none" stroke-width="0" opacity="1"/>
		<rect x="567" y="195" width="126" height="77" fill="#e6f5d0" stroke="none" stroke-width="0" opacity="1"/>
		<rect x="567" y="170" width="126" height="102" fill="none" stroke="#7fbc41" stroke-width="2" opacity="1"/>
		<line x1="567" y1="195" x2="693" y2="195" stroke="#7fbc41" stroke-width="1"/>
	</g>
	<text x="572" y="187.75" fill="#000000" font-family="Verdana" font-size="12">TYPE UTILISATEUR</text>
	<text x="572" y="212.8" fill="#000000" font-family="Verdana" font-size="12">type ref</text>
	<line x1="572" y1="215" x2="620" y2="215" stroke="#000000" stroke-width="1"/>
	<text x="572" y="229.8" fill="#000000" font-family="Verdana" font-size="12">code</text>
	<text x="572" y="246.8" fill="#000000" font-family="Verdana" font-size="12">label</text>
	<text x="572" y="263.8" fill="#000000" font-family="Verdana" font-size="12">taux tva</text>
</g>
</svg>